<?xml version="1.0" encoding="utf-8"?>
<!-- Generator: Adobe Illustrator 26.0.1, SVG Export Plug-In . SVG Version: 6.00 Build 0)  -->
<svg version="1.1" id="Layer_1" xmlns="http://www.w3.org/2000/svg" xmlns:xlink="http://www.w3.org/1999/xlink" x="0px" y="0px"
	 viewBox="0 0 551.6 290" style="enable-background:new 0 0 551.6 290;" xml:space="preserve">
<style type="text/css">
	.st0{fill:#231F20;}
	.st1{fill:#00ADEE;}
</style>
<path class="st0" d="M274.5,112.4c-5,0-10.3,1-13.9,1.9l50.4-56.7h-60.5l-41.8,54l0,0c-10.4,13.5-18.7,25.2-23,39
	c-6.1-8.2-13.9-12.9-19.4-15.4c11.6-7,18.2-19.2,18.2-33.7c0-32.6-31.8-50.2-61.7-50.2c-16.2,0-31.4,5.4-42.9,15.2
	C67.6,76.9,61,91.3,61,107.1v1.4h43.3v-1.4c0-11.5,7.9-20.2,18.4-20.2c10.1,0,17.5,7.3,17.5,17.5c0,11.9-4,18.4-25.1,18.4h-9.3v31.8
	h10c20.1,0,30.3,7.8,30.3,23.1c0,13.3-8.4,21.5-21.9,21.5c-19.3,0-23.3-13.2-23.3-24.2v-1.4H53.3v1.4c0,19.4,7.6,35.8,22.1,47.4
	c13,10.5,30.8,16.3,49.9,16.3c17.7,0,35.2-5.6,48-15.4c7.2-5.5,12.6-12.1,16.3-19.5c3.5,6.6,8.3,12.4,14.2,17.5
	c13.3,11.2,31.9,17.4,52.5,17.4c20.1,0,38.5-5.8,51.8-16.4c14.9-11.9,22.8-29.2,22.8-49.9C330.9,139.3,305.6,112.4,274.5,112.4z
	 M255.8,199c-15.1,0-26.4-11-26.4-25.5c0-14.4,11.6-25.8,26.4-25.8c15.8,0,26.9,10.5,26.9,25.5C282.7,188.1,271.4,199,255.8,199z"/>
<path class="st1" d="M431.4,145.3c-0.2,0.5-0.1,1.1,0.3,1.6l21.7,21.7l15.2,15.9c0.7,0.8,1.9,0.8,2.6,0l4.9-5l32.6-32.6
	c0.4-0.4,0.5-1,0.3-1.6c-0.2-0.5-0.7-0.9-1.3-0.9h-10.5c-0.9-51-43.3-92.2-94.8-91.1c-49.8,1-90.3,41.7-91,91.5
	c-0.8,51.9,41.2,94.3,92.9,94.3c43.9,0,81.6-31,90.8-73.1c0.2-0.7-24.2,24.4-24.2,24.4c-0.3,0.3-0.6,0.4-1,0.4h0
	c-0.4,0-0.8-0.2-1-0.4c0,0-27-28.1-27.3-27.5c-6.5,14.4-21.1,24.1-37.2,24.1c-22.9,0-41.5-19-40.7-42.1c0.7-21.2,18-38.6,39.3-39.4
	c22.7-0.8,41.4,16.9,42.2,39h-12.4C432.1,144.4,431.6,144.7,431.4,145.3"/>
</svg>
